<svg xmlns="http://www.w3.org/2000/svg" viewBox="0 0 64 64">
  <path d="M24 16c0-7 5-12 12-12 5 0 9 3 11 7 1-1 2-2 3-2 3 0 5 3 5 6 0 3-2 5-5 6H24c-4 0-7-3-7-7 0-4 3-7 7-7z" fill="#64748B"/>
  <g fill="#0EA5E9">
    <line x1="20" y1="34" x2="16" y2="46" stroke="#0EA5E9" stroke-width="3" stroke-linecap="round"/>
    <line x1="30" y1="34" x2="24" y2="48" stroke="#0EA5E9" stroke-width="3" stroke-linecap="round"/>
    <line x1="40" y1="34" x2="34" y2="48" stroke="#0EA5E9" stroke-width="3" stroke-linecap="round"/>
    <line x1="50" y1="34" x2="44" y2="48" stroke="#0EA5E9" stroke-width="3" stroke-linecap="round"/>
  </g>
</svg>